PathFileType	3	(X/Y/Z)	F:\ViconData\AntennenMessung\Messung1\Session1\ID09.trc
DataRate	CameraRate	NumFrames	NumMarkers	Units	OrigDataRate	OrigDataStartFrame	OrigNumFrames
120.0	120.0	4	70	mm	120.0	406	1082	
Frame#	Time	Ashort			Along			Atop			A4			Bshort			Blong			Btop			B4			Cshort			Clong			Ctop			C4			Dshort			Dlong			Dtop			D4			Eshort			Elong			Etop			E4			Fshort			Flong			Ftop			F4			Gshort			Glong			Gtop			G4			Hshort			Hlong			Htop			H4			I1			I2			I3			I4			I5			WandAshort			WandAlong			WandAtop			WandA4			WandA15			WandBshort			WandB4			WandB5			WandBtop			WandBlong			WandCshort			WandClong			WandCtop			WandC4			WandC5			Acenter			Aantenna			Bcenter			Bantenna			Ccenter			Cantenna			Dcenter			Dantenna			Ecenter			Eantenna			Fcenter			Fantenna			Gcenter			Gantenna			Hcenter			Hantenna			Icenter			Iantenna			
		X1	Y1	Z1	X2	Y2	Z2	X3	Y3	Z3	X4	Y4	Z4	X5	Y5	Z5	X6	Y6	Z6	X7	Y7	Z7	X8	Y8	Z8	X9	Y9	Z9	X10	Y10	Z10	X11	Y11	Z11	X12	Y12	Z12	X13	Y13	Z13	X14	Y14	Z14	X15	Y15	Z15	X16	Y16	Z16	X17	Y17	Z17	X18	Y18	Z18	X19	Y19	Z19	X20	Y20	Z20	X21	Y21	Z21	X22	Y22	Z22	X23	Y23	Z23	X24	Y24	Z24	X25	Y25	Z25	X26	Y26	Z26	X27	Y27	Z27	X28	Y28	Z28	X29	Y29	Z29	X30	Y30	Z30	X31	Y31	Z31	X32	Y32	Z32	X33	Y33	Z33	X34	Y34	Z34	X35	Y35	Z35	X36	Y36	Z36	X37	Y37	Z37	X38	Y38	Z38	X39	Y39	Z39	X40	Y40	Z40	X41	Y41	Z41	X42	Y42	Z42	X43	Y43	Z43	X44	Y44	Z44	X45	Y45	Z45	X46	Y46	Z46	X47	Y47	Z47	X48	Y48	Z48	X49	Y49	Z49	X50	Y50	Z50	X51	Y51	Z51	X52	Y52	Z52	X53	Y53	Z53	X54	Y54	Z54	X55	Y55	Z55	X56	Y56	Z56	X57	Y57	Z57	X58	Y58	Z58	X59	Y59	Z59	X60	Y60	Z60	X61	Y61	Z61	X62	Y62	Z62	X63	Y63	Z63	X64	Y64	Z64	X65	Y65	Z65	X66	Y66	Z66	X67	Y67	Z67	X68	Y68	Z68	X69	Y69	Z69	X70	Y70	Z70	
406	3.375	-1038.214	214.54315	-1644.2054	-1109.3572	203.8887	-1599.4105	-1063.6039	172.28055	-1625.6488	-1054.1602	262.20828	-1634.8971	-1352.7892	235.09132	1004.1859	-1281.316	227.04794	1052.8571	-1322.9208	193.93372	1020.9933	-1284.6627	288.1163	1052.366	814.14307	187.41997	1209.4855	892.09143	178.46098	1179.2719	844.22992	145.75574	1198.176	860.85889	293.35349	1167.0403	1115.7317	209.58249	-1401.5594	1056.1433	194.15768	-1460.1985	1094.9998	162.31529	-1423.9523	1069.8699	238.77908	-1425.8324	-1204.5958	1686.0315	-1563.1013	-1129.1595	1688.3917	-1606.5316	-1173.1453	1724.4282	-1581.9493	-1133.766	1581.0222	-1603.6241	-1239.7764	1699.3949	1119.512	-1309.2754	1698.7051	1071.8953	-1270.5049	1736.4224	1096.9321	-1244.9674	1593.7346	1106.4008	988.92303	1664.2985	1162.2913	955.91779	1702.3447	1181.1992	922.67987	1662.0817	1214.97	939.81958	1659.415	1159.942	999.14996	1668.49	-1579.3418	1058.9015	1670.1757	-1518.6005	1025.0156	1708.045	-1551.0781	1059.2778	1672.1646	-1585.3809	410.97665	1606.3464	-23.987537	411.45023	1608.0193	-108.08791	413.4364	1644.0239	-60.881443	444.18793	1605.0757	-61.049942	363.32657	1610.349	-61.444214																																														-1068.8037	209.96198	-1624.9446	-1074.134	248.58926	-1624.2228	-1321.6688	231.58914	1025.3779	-1320.3816	270.3063	1029.886	847.88672	183.54163	1196.406	851.63947	222.31815	1194.5896	1088.7083	202.58734	-1428.1522	1082.7203	240.91701	-1432.1498	-1171.9464	1687.0529	-1581.8981	-1170.6962	1648.073	-1581.8448	-1270.9642	1699.0852	1098.1437	-1271.4438	1660.1088	1099.4086	953.59491	1705.0223	1182.5298	973.0213	1732.0052	1162.145	1026.5382	1669.2626	-1551.4996	1028.0684	1630.2948	-1551.9232	411.1886	1607.0951	-61.628597	408.81958	1568.175	-62.416046
407	3.3833333	-1038.2222	214.5107	-1644.1794	-1109.3149	203.92284	-1599.3824	-1063.5669	172.77348	-1625.8344	-1054.1855	262.22354	-1634.9265	-1352.8496	234.9642	1004.2033	-1281.3781	227.05823	1052.8438	-1322.9108	193.91682	1020.9799	-1284.592	288.12531	1052.3682	814.1228	187.62552	1209.574	892.62347	179.25418	1178.7821	844.32977	145.66458	1198.2561	860.63239	292.94604	1167.4875	1115.7313	209.5907	-1401.5656	1056.1968	194.10785	-1460.1896	1094.9852	162.29701	-1423.8506	1069.8613	238.77782	-1425.8544	-1204.5936	1686.0255	-1563.089	-1129.1381	1688.2628	-1606.025	-1173.129	1724.4138	-1581.9561	-1134.0415	1581.0334	-1603.7632	-1239.751	1699.3419	1119.4869	-1309.2583	1698.6781	1071.8826	-1270.4963	1736.4087	1096.9281	-1245.0322	1593.7638	1106.4248	988.92847	1664.2955	1162.3121	955.88275	1702.291	1181.1647	922.78552	1662.1122	1215.0084	939.80493	1659.4342	1159.9122	999.14661	1668.5024	-1579.363	1058.9048	1670.1787	-1518.5933	1025.0166	1708.0374	-1551.0765	1059.2673	1672.1968	-1585.4967	410.97522	1606.3478	-23.983761	411.45886	1608.0192	-108.08669	413.42886	1644.0291	-60.878403	444.1629	1605.0782	-61.06002	363.33096	1610.3593	-61.432907																																														-1068.6051	209.98575	-1625.0344	-1073.8362	248.6244	-1624.2041	-1321.7413	231.52312	1025.374	-1320.5375	270.24112	1029.8982	847.69641	184.0452	1196.4047	851.10046	222.85123	1194.5327	1088.7395	202.57108	-1428.1443	1082.7959	240.89828	-1432.2307	-1171.8771	1686.9955	-1581.7054	-1170.5729	1648.0181	-1581.4446	-1270.9536	1699.0438	1098.1167	-1271.4307	1660.0665	1099.3567	953.53778	1704.9871	1182.5024	972.8905	1731.9688	1162.0459	1026.5403	1669.2708	-1551.5055	1028.072	1630.3032	-1551.9368	411.19165	1607.0957	-61.625187	408.83405	1568.175	-62.412167
408	3.3916667	-1038.2153	214.51836	-1644.1664	-1109.3623	203.95683	-1599.3931	-1063.5885	172.7476	-1625.7981	-1054.1802	262.18732	-1634.911	-1352.8491	235.04987	1004.1845	-1281.3208	227.02625	1052.8595	-1322.9087	193.99864	1020.8998	-1284.6226	288.12961	1052.3142	814.20312	187.50841	1209.4766	892.62268	179.27194	1178.7378	844.24475	145.73688	1198.1747	860.64325	293.04462	1167.3823	1115.7937	209.89136	-1401.7148	1056.1422	194.18669	-1460.2074	1095.0011	162.53745	-1423.9275	1069.8545	238.75374	-1425.8158	-1204.6007	1686.0173	-1563.0933	-1129.1438	1688.2511	-1606.0092	-1173.129	1724.428	-1581.9666	-1134.0323	1581.0352	-1603.7775	-1239.7604	1699.369	1119.5063	-1309.1898	1698.5771	1071.8436	-1270.4513	1736.3539	1096.8971	-1244.9611	1593.7402	1106.3326	988.87836	1664.2504	1162.3065	956.01642	1702.3081	1181.1545	922.67639	1662.2189	1215.0543	939.83167	1659.4429	1159.9746	999.13287	1668.4885	-1579.344	1058.8926	1670.1608	-1518.6066	1025.0219	1708.0404	-1551.0706	1059.2767	1672.1554	-1585.3737	410.99176	1606.3477	-23.990417	411.45932	1608.0083	-108.0842	413.45383	1644.0281	-60.89817	444.1543	1605.0836	-61.0504	363.36142	1610.321	-61.441936																																														-1068.6322	210.00305	-1625.0247	-1073.8634	248.64229	-1624.2225	-1321.7308	231.55919	1025.3605	-1320.5171	270.26825	1029.9576	847.56769	184.00409	1196.3984	850.93799	222.81639	1194.5967	1088.6912	202.75595	-1428.2908	1082.6807	241.06523	-1432.4468	-1171.873	1686.9862	-1581.7069	-1170.5656	1648.009	-1581.4368	-1270.8805	1699.014	1098.1426	-1271.3284	1660.0382	1099.4429	953.63617	1705.0646	1182.5195	973.08875	1731.9852	1162.0775	1026.5359	1669.2552	-1551.4926	1028.0573	1630.2871	-1551.9165	411.20105	1607.0911	-61.640049	408.82742	1568.1713	-62.421764
409	3.4	-1038.2308	214.49185	-1644.1359	-1109.3032	204.01129	-1599.4277	-1063.5667	172.7684	-1625.8605	-1054.1826	262.2157	-1634.9006	-1352.9003	235.01202	1004.1565	-1281.2937	227.13887	1052.8228	-1322.9479	193.92625	1020.962	-1284.646	288.12589	1052.3336	814.25482	187.45784	1209.5299	892.46094	179.51245	1177.7816	844.28998	145.69847	1198.2975	860.62244	292.92288	1167.4641	1115.7295	209.58047	-1401.5625	1056.1519	194.1824	-1460.1935	1094.9752	162.28558	-1423.8696	1069.8685	238.76123	-1425.8191	-1204.5952	1686.0311	-1563.1027	-1129.1235	1688.2666	-1606.0127	-1173.1318	1724.4348	-1581.9586	-1134.0369	1581.0316	-1603.7462	-1239.694	1699.2725	1119.4731	-1309.3691	1698.8358	1071.9419	-1270.4814	1736.3945	1096.9154	-1244.9971	1593.6364	1106.3341	988.88263	1664.2487	1162.3081	955.85486	1702.2963	1181.1218	922.73035	1662.1129	1215.0149	939.84613	1659.4473	1159.9385	999.11029	1668.5261	-1579.4036	1058.8993	1670.1736	-1518.5929	1025.0203	1708.0317	-1551.0702	1059.2806	1672.199	-1585.4978	410.97754	1606.3529	-23.991682	411.46356	1608.0203	-108.08646	413.43375	1644.0247	-60.890656	444.18637	1605.089	-61.049019	363.35043	1610.3292	-61.434074																																														-1068.5562	210.01997	-1625.0596	-1073.7324	248.666	-1624.2288	-1321.7661	231.58881	1025.3163	-1320.5511	270.31195	1029.7931	847.3045	184.10014	1196.113	850.35187	222.91814	1193.9049	1088.7402	202.605	-1428.1228	1082.8121	240.93915	-1432.1667	-1171.8781	1687.0001	-1581.704	-1170.5729	1648.0229	-1581.439	-1271.0458	1699.0759	1098.0853	-1271.6351	1660.0996	1099.3073	953.53888	1704.964	1182.4412	972.91229	1731.9103	1161.9576	1026.5352	1669.2817	-1551.51	1028.0586	1630.314	-1551.9523	411.19507	1607.0992	-61.635712	408.83542	1568.1787	-62.421036
